<svg width="23" height="23" viewBox="0 0 23 23" fill="none" xmlns="http://www.w3.org/2000/svg">
<g id="Group 5">
<circle id="Ellipse 1" cx="11.5" cy="11.5" r="11.5" fill="#E7E7E7"/>
<g id="Vector">
<path d="M12.0405 9.45187C12.4142 9.63027 12.7395 9.89573 12.9893 10.226C13.2391 10.5562 13.406 10.9415 13.476 11.3496C13.5459 11.7577 13.5169 12.1767 13.3914 12.5712C13.2659 12.9658 13.0476 13.3245 12.7547 13.6172L10.1672 16.2047C9.68191 16.6899 9.02377 16.9625 8.33752 16.9625C7.65126 16.9625 6.99312 16.6899 6.50787 16.2047C6.02261 15.7194 5.75 15.0613 5.75 14.375C5.75 13.6888 6.02261 13.0306 6.50787 12.5454L7.51814 11.5351M15.1944 11.1774L16.2047 10.1672C16.6899 9.68192 16.9625 9.02377 16.9625 8.33752C16.9625 7.65127 16.6899 6.99312 16.2047 6.50787C15.7194 6.02262 15.0613 5.75 14.375 5.75C13.6888 5.75 13.0306 6.02262 12.5454 6.50787L9.95787 9.09537C9.66498 9.38805 9.44661 9.74674 9.3211 10.1413C9.19559 10.5359 9.1666 10.9548 9.23657 11.3629C9.30654 11.771 9.47342 12.1564 9.7232 12.4866C9.97298 12.8168 10.2984 13.0823 10.672 13.2607" fill="#E7E7E7"/>
<path d="M12.0405 9.45187C12.4142 9.63027 12.7395 9.89573 12.9893 10.226C13.2391 10.5562 13.406 10.9415 13.476 11.3496C13.5459 11.7577 13.5169 12.1767 13.3914 12.5712C13.2659 12.9658 13.0476 13.3245 12.7547 13.6172L10.1672 16.2047C9.68191 16.6899 9.02377 16.9625 8.33752 16.9625C7.65126 16.9625 6.99312 16.6899 6.50787 16.2047C6.02261 15.7194 5.75 15.0613 5.75 14.375C5.75 13.6888 6.02261 13.0306 6.50787 12.5454L7.51814 11.5351M15.1944 11.1774L16.2047 10.1672C16.6899 9.68192 16.9625 9.02377 16.9625 8.33752C16.9625 7.65127 16.6899 6.99312 16.2047 6.50787C15.7194 6.02262 15.0613 5.75 14.375 5.75C13.6888 5.75 13.0306 6.02262 12.5454 6.50787L9.95787 9.09537C9.66498 9.38805 9.44661 9.74674 9.3211 10.1413C9.19559 10.5359 9.1666 10.9548 9.23657 11.3629C9.30654 11.771 9.47342 12.1564 9.7232 12.4866C9.97298 12.8168 10.2984 13.0823 10.672 13.2607" stroke="black" stroke-width="1.5" stroke-linecap="round" stroke-linejoin="round"/>
</g>
</g>
</svg>
