<svg width="259" height="92" viewBox="0 0 259 92" fill="none" xmlns="http://www.w3.org/2000/svg">
<path d="M53.163 43.2987C51.8741 44.3897 50.5852 45.5798 49.2963 46.6707C48.3049 47.4641 47.3135 48.1584 46.322 48.8526C44.8348 49.9436 43.3477 50.9354 41.7614 52.0263C41.6622 51.3321 41.5631 50.3403 41.4639 49.3485C41.1665 43.3979 40.8691 37.4472 40.4725 31.4966C40.3733 30.0089 40.2742 28.6204 39.9768 27.1328C39.7785 26.2402 39.2828 25.2484 38.5887 24.5542C37.0024 22.769 36.3084 22.9673 35.0195 24.8517C31.7478 29.9097 28.3769 34.8686 25.1051 39.9267C22.8248 43.3979 23.3205 45.0839 27.088 47.2658C18.3633 47.2658 9.93597 47.2658 0.913818 47.2658C6.26762 45.1831 9.04367 40.9184 11.8197 36.753C17.8675 27.5295 23.9153 18.2068 30.0623 8.88414C30.2606 8.48743 30.558 8.09071 30.7563 7.694C32.0452 5.41291 31.9461 4.6195 30.1615 2.63596C37.399 2.63596 44.5374 2.63596 51.6758 2.63596C48.0075 4.32197 46.2229 7.59482 44.1408 10.6693C41.8605 14.1405 39.5802 17.7109 37.2007 21.1821C37.0024 21.4797 36.8041 21.8764 36.5067 22.4714C43.6451 22.4714 50.6844 22.4714 57.6245 22.4714C57.6245 22.5706 57.6245 22.6698 57.7236 22.8681C57.4262 22.9673 57.1288 23.0665 56.8313 23.2649C54.0553 24.0583 52.6673 25.6451 52.6673 28.6204C52.7664 32.7859 53.0638 36.8522 53.163 41.0176C53.163 41.811 53.2621 42.6045 53.2621 43.3979C53.5596 43.3979 53.3613 43.2987 53.163 43.2987Z" fill="white"/>
<path d="M124.547 49.6461C122.564 47.4642 119.59 46.5716 116.516 45.5798C114.434 44.8856 112.352 44.1913 110.369 43.3979C100.653 39.6291 97.3815 31.3974 98.4721 22.3723C99.3644 14.4381 104.024 9.47921 111.361 6.9006C113.344 6.20636 115.227 5.51212 117.21 4.91705C119.986 3.92528 122.762 3.03267 124.845 0.751587C127.224 3.42938 130.397 4.2228 133.47 5.31376C137.535 6.60306 141.699 7.89237 144.971 10.7685C150.325 15.3307 151.713 21.3805 151.118 28.0254C150.226 37.3481 144.277 42.3069 135.85 44.8855C134.065 45.4806 132.082 45.9765 130.397 46.6707C128.414 47.365 126.629 48.5551 124.547 49.6461ZM110.568 25.4468C110.667 30.2073 111.063 34.9678 113.542 39.2324C116.12 43.7946 120.086 45.9765 125.241 45.7782C130.198 45.679 134.065 43.3979 136.147 38.8357C137.436 35.9596 138.229 32.7859 138.626 29.6122C139.518 23.3641 139.022 17.2151 136.048 11.5619C133.668 7.09895 129.802 4.91705 124.745 4.91705C119.788 4.91705 116.021 7.09895 113.542 11.4628C111.163 15.7274 110.766 20.4879 110.568 25.4468Z" fill="white"/>
<path d="M213.083 37.6456C213.182 41.1168 213.381 44.0921 213.48 47.2658C202.574 47.2658 191.767 47.2658 180.663 47.2658C183.439 45.7782 183.736 43.4971 183.637 40.9185C183.538 35.8604 183.637 30.7032 183.538 25.6451C183.439 23.2649 183.538 20.7854 180.861 18.9011C181.853 18.9011 182.447 18.9011 183.042 18.9011C189.586 18.9011 196.129 18.9011 202.673 18.9011C204.16 18.9011 204.656 18.5044 204.557 17.0167C204.358 14.4381 204.656 11.7603 204.358 9.18167C203.863 4.32198 199.599 2.5368 195.733 5.41294C194.444 6.40472 193.353 7.59484 192.362 8.88415C191.073 10.5702 189.487 11.5619 187.504 12.0578C185.818 12.5537 184.133 13.0496 182.249 13.6447C182.249 11.8595 182.249 10.0743 182.249 8.28908C182.249 6.50389 182.051 4.71869 181.952 2.73514C193.948 2.73514 205.945 2.73514 218.04 2.73514C215.066 4.2228 215.264 6.99977 215.363 9.67756C215.363 11.4628 215.363 13.1488 215.463 14.934C215.562 17.0167 216.057 18.9011 218.139 20.0912C214.273 20.0912 210.406 20.0912 206.54 20.0912C203.069 20.0912 199.5 20.0912 196.03 20.0912C194.94 20.0912 194.444 20.3887 194.444 21.5789C194.444 28.2237 194.444 34.7695 194.444 41.4143C194.444 44.4888 196.03 45.7782 199.005 45.9765C204.953 46.4724 209.216 44.1913 212.191 39.2324C212.191 38.6374 212.587 38.3399 213.083 37.6456Z" fill="white"/>
<path d="M91.9285 36.1579C90.1439 34.9678 88.5575 34.1744 87.467 33.0834C86.1781 31.7941 85.1866 30.1081 84.1952 28.5213C83.6995 27.6287 83.5012 26.5377 83.0055 25.6451C82.3114 24.0583 81.0226 23.2649 79.1388 23.1657C79.0397 23.6616 79.0397 24.1575 79.0397 24.6534C79.0397 30.1081 79.0397 35.5629 79.0397 40.9185C79.0397 43.5962 79.6345 45.9765 82.4106 47.2658C75.9662 47.2658 69.6209 47.2658 63.2757 47.2658C66.3492 45.7782 66.6466 43.1995 66.6466 40.3234C66.6466 30.0089 66.6466 19.5953 66.6466 9.28085C66.6466 6.50389 66.0517 4.02444 63.0774 2.73514C69.6209 2.73514 76.1645 2.73514 82.6089 2.73514C78.7422 4.32198 78.9405 7.69401 79.0397 10.9669C79.0397 14.0414 79.1388 17.1159 79.0397 20.2896C78.9405 22.1739 79.6345 22.5706 81.32 22.4715C84.3935 22.3723 87.467 22.4715 90.6396 22.4715C91.2345 22.4715 91.7302 22.4715 92.1268 22.4715C91.9285 26.9344 91.9285 31.3974 91.9285 36.1579Z" fill="white"/>
<path d="M155.084 2.63596C161.528 2.63596 167.972 2.63596 174.417 2.63596C171.046 4.32197 171.046 7.39647 171.046 10.471C171.046 20.5871 171.046 30.7032 171.046 40.8193C171.046 43.4971 171.641 45.7781 174.417 47.1666C168.072 47.1666 161.726 47.1666 154.786 47.1666C158.653 45.5798 158.752 42.7036 158.752 39.6291C158.752 29.513 158.752 19.3969 158.752 9.28084C158.653 6.50387 157.959 4.02444 155.084 2.63596Z" fill="white"/>
<path d="M202.276 35.2653C202.276 31.6949 202.276 28.3229 202.276 24.7525C202.574 24.7525 203.169 24.7525 203.764 24.7525C209.613 24.7525 215.463 24.7525 221.312 24.7525C224.683 24.7525 225.476 24.0583 225.476 20.5871C225.476 16.3224 225.476 12.157 225.476 7.99153C225.476 5.01621 224.98 4.22279 222.403 2.53677C228.054 2.53677 233.606 2.53677 239.555 2.53677C236.68 3.82608 236.184 6.00798 236.184 8.48742C236.283 13.2479 236.184 18.1076 236.184 22.8681C236.184 25.6451 236.58 26.0418 239.456 27.1328C233.804 28.1246 228.55 29.1163 223.196 30.0089C223.295 29.8106 223.295 29.7114 223.295 29.6122C223.791 28.918 224.286 28.1246 224.782 27.4303C223.89 27.0336 222.998 26.4385 222.006 26.3394C218.338 26.0418 215.363 27.232 212.587 29.7114C210.803 31.2982 208.523 32.3892 206.341 33.4801C205.152 34.1744 203.962 34.5711 202.276 35.2653Z" fill="white"/>
<path d="M241.736 2.53677C247.387 2.53677 252.741 2.53677 258.095 2.53677C255.517 4.02444 255.319 6.40469 255.418 8.98331C255.517 14.934 255.418 20.7854 255.418 26.6369C255.418 29.3147 256.112 30.0089 258.789 30.604C253.336 31.5958 247.982 32.5875 242.529 33.4801C244.71 31.7941 244.809 29.4139 244.809 27.0336C244.809 20.8846 244.809 14.6364 244.809 8.48742C244.809 5.31374 244.413 4.52032 241.736 2.53677Z" fill="white"/>
<path d="M85.4842 87.036C84.5919 87.036 83.8979 87.036 83.2038 87.036C77.9492 87.036 72.7937 87.036 67.539 87.036C67.0433 87.036 66.4484 87.5319 65.9527 87.7302C66.4484 87.9286 66.9441 88.3253 67.539 88.3253C72.9919 88.3253 78.544 88.3253 83.997 88.3253C84.5919 88.3253 85.0876 88.3253 85.6825 88.3253C85.8808 90.3088 85.2859 91.003 83.4021 91.003C77.156 90.9039 70.9099 90.9039 64.6638 91.003C63.2758 91.003 62.8792 90.6064 62.8792 89.2179C62.8792 84.1598 62.8792 84.1598 67.8364 84.1598C72.0997 84.1598 76.3629 84.1598 80.6261 84.1598C81.221 84.1598 81.7167 83.6639 82.3115 83.4656C81.8158 83.2672 81.221 82.8705 80.7252 82.8705C75.4706 82.8705 70.315 82.8705 65.0604 82.8705C62.6809 82.8705 62.6809 82.8705 62.9783 80.0935C65.1595 80.0935 67.3407 80.0935 69.5219 80.0935C70.0176 80.0935 70.5133 80.1927 70.9099 80.0935C71.4056 79.9944 71.8022 79.5977 72.1988 79.3993C71.7031 79.201 71.3065 78.7051 70.8108 78.7051C67.8364 78.6059 64.8621 78.7051 61.8878 78.7051C59.7066 78.7051 59.7066 78.6059 60.1031 76.2256C69.3236 76.2256 78.6432 76.2256 87.9628 76.2256C87.9628 77.019 87.9628 77.7133 87.9628 78.7051C85.5833 78.7051 83.2038 78.7051 80.8244 78.7051C79.6346 78.7051 78.4449 78.6059 77.3543 78.7051C76.8586 78.7051 76.3628 79.2009 75.8671 79.4985C76.3628 79.6968 76.7595 80.0935 77.2552 80.0935C79.4364 80.1927 81.7167 80.1927 83.8978 80.0935C84.9884 80.0935 85.385 80.4902 85.2859 81.5812C85.385 83.2672 85.4842 85.0524 85.4842 87.036Z" fill="white"/>
<path d="M257.103 37.1497C257.103 40.7201 257.103 43.8938 257.103 47.1666C244.016 47.1666 230.632 47.1666 216.652 47.1666C219.924 45.5798 219.825 43.0012 219.825 40.4226C219.825 37.7448 219.924 35.1662 216.752 33.7777C221.213 33.1826 225.675 32.4884 230.433 31.7941C230.433 34.1744 230.433 36.4555 230.433 38.7365C230.433 43.6954 232.516 45.8773 237.572 46.1749C242.926 46.4724 247.585 45.1831 251.452 41.216C252.939 39.7283 254.922 38.6374 257.103 37.1497Z" fill="white"/>
<path d="M199.5 91.003C191.569 91.003 183.836 91.003 175.805 91.003C175.805 87.7302 175.805 84.5565 175.805 81.3829C175.805 81.1845 176.4 80.6886 176.796 80.6886C184.232 80.6886 191.668 80.6886 199.104 80.6886C199.203 80.6886 199.302 80.7878 199.5 80.887C199.5 84.259 199.5 87.5318 199.5 91.003ZM187.801 88.4244C189.685 88.4244 191.569 88.4244 193.353 88.4244C197.022 88.4244 196.526 88.9203 196.625 85.1516C196.625 83.6639 196.129 83.2672 194.642 83.3664C190.478 83.4656 186.314 83.3664 182.15 83.3664C178.482 83.3664 178.779 82.573 178.779 86.8376C178.779 88.0277 179.275 88.4244 180.465 88.4244C182.943 88.4244 185.323 88.4244 187.801 88.4244Z" fill="white"/>
<path d="M65.8535 65.6136C65.9526 66.3079 65.9526 66.8038 66.0518 67.6964C67.0432 67.6964 68.1338 67.6964 69.1252 67.6964C72.7936 67.6964 76.5611 67.5972 80.2295 67.6964C81.8158 67.6964 82.8072 67.498 82.5098 65.7128C85.1867 65.1178 85.3849 65.2169 85.3849 67.7956C85.3849 69.6799 85.3849 71.5643 85.3849 73.3495C85.3849 74.3413 84.9884 74.8372 83.9969 74.8372C77.3542 74.8372 70.8107 74.8372 64.168 74.8372C63.1766 74.8372 62.78 74.4404 62.8792 73.5478C62.8792 71.6635 62.8792 69.7791 62.8792 67.9939C62.8792 65.217 62.8792 65.2169 65.8535 65.6136ZM82.3115 69.7791C81.1217 69.9775 80.0311 70.3742 79.0397 70.3742C75.1731 70.4734 71.2073 70.3742 67.3407 70.4734C66.8449 70.4734 66.4483 71.0684 66.0518 71.366C66.4483 71.5643 66.9441 72.0602 67.3407 72.0602C71.1082 72.1594 74.8756 72.0602 78.544 72.0602C79.8329 72.0602 81.1217 72.0602 82.4106 72.0602C82.3115 71.0684 82.3115 70.3742 82.3115 69.7791Z" fill="white"/>
<path d="M143.583 65.6136C143.583 67.5972 143.583 69.3824 143.583 71.2668C143.583 77.0191 143.583 82.8705 143.583 88.6228C143.583 91.3998 143.484 91.3998 140.41 90.8047C140.41 89.5154 140.41 88.1269 140.41 86.2426C137.238 89.5154 133.47 88.4245 130.099 88.6228C127.026 88.8212 124.051 88.722 120.978 88.6228C119.986 88.6228 118.797 89.1187 118.797 87.2343C118.797 85.2508 120.085 85.8459 121.077 85.7467C125.836 85.6475 130.595 85.7467 135.255 85.6475C140.41 85.5483 140.41 85.5483 140.41 80.3911C140.41 76.1265 140.41 71.961 140.41 67.7956C140.509 65.1178 140.509 65.1177 143.583 65.6136Z" fill="white"/>
<path d="M137.039 74.4404C137.039 79.8952 134.065 83.0688 128.711 83.0688C123.357 83.0688 120.185 79.9944 120.185 74.7379C120.185 69.184 123.258 66.0103 128.711 66.0103C133.867 65.9112 136.94 69.0848 137.039 74.4404ZM133.768 74.4404C133.768 70.6717 131.685 68.3906 128.414 68.4898C125.836 68.589 124.051 70.1758 123.655 72.6552C123.06 76.424 124.15 79.2009 126.629 80.1927C130.397 81.6804 133.768 79.0026 133.768 74.4404Z" fill="white"/>
<path d="M186.314 65.6136C185.521 67.1013 184.827 68.2914 184.133 69.4816C184.331 69.6799 184.331 69.6799 184.331 69.6799C187.008 69.2832 188 71.2667 189.09 73.1511C190.082 74.8371 191.073 76.5231 192.064 78.3083C189.487 79.2009 188.495 78.9034 187.206 76.7215C186.017 74.7379 184.926 72.8536 183.538 70.4733C182.844 71.6635 182.249 72.6552 181.654 73.5478C181.059 74.5396 180.465 75.5314 179.87 76.6223C178.383 79.0026 178.184 79.1017 175.012 78.5067C175.507 77.5149 176.003 76.7215 176.499 75.8289C177.986 73.1511 179.572 70.5725 181.059 67.9939C182.745 65.2169 182.745 65.1177 186.314 65.6136Z" fill="white"/>
<path d="M199.401 78.5067C198.41 78.5067 197.617 78.5067 196.625 78.5067C196.625 77.2174 196.625 75.9281 196.625 74.738C196.625 73.647 196.229 73.2503 195.138 73.2503C194.047 73.2503 193.056 73.2503 191.866 73.2503C191.866 72.3577 191.866 71.5643 191.866 70.5725C192.858 70.5725 193.948 70.4733 194.94 70.5725C196.129 70.6717 196.625 70.275 196.625 68.9857C196.526 67.7955 196.625 66.7046 196.625 65.4153C197.617 65.4153 198.41 65.4153 199.401 65.4153C199.401 69.7791 199.401 74.0437 199.401 78.5067Z" fill="white"/>
<path d="M128.315 25.1492C128.215 23.5624 128.116 21.9756 128.017 20.4879C132.379 25.3476 130.793 35.662 124.944 40.2242C119.392 34.9678 118.301 30.2073 121.077 23.6616C121.176 24.7525 121.176 25.4468 121.275 26.141C121.374 26.8353 121.672 27.5295 121.87 28.2237C122.068 28.2237 122.267 28.2237 122.465 28.2237C122.663 27.5295 122.961 26.8353 122.961 26.141C122.961 23.8599 122.862 21.4797 122.762 19.0994C122.564 16.62 122.862 14.2397 123.952 11.8595C123.258 17.0167 125.836 21.083 128.315 25.1492Z" fill="white"/>
</svg>
